<svg xmlns="http://www.w3.org/2000/svg" xmlns:xlink="http://www.w3.org/1999/xlink" width="500" zoomAndPan="magnify" viewBox="0 0 375 374.999991" height="500" preserveAspectRatio="xMidYMid meet" version="1.0"><defs><clipPath id="a07b325e68"><path d="M 158 77 L 161 77 L 161 79.210938 L 158 79.210938 Z M 158 77 " clip-rule="nonzero"/></clipPath><clipPath id="29e5391dbc"><path d="M 169 54 L 187.242188 54 L 187.242188 71 L 169 71 Z M 169 54 " clip-rule="nonzero"/></clipPath><clipPath id="72d74e5c69"><path d="M 148.992188 58 L 158 58 L 158 67 L 148.992188 67 Z M 148.992188 58 " clip-rule="nonzero"/></clipPath><clipPath id="ab2701f2f2"><path d="M 154 42.460938 L 164 42.460938 L 164 51 L 154 51 Z M 154 42.460938 " clip-rule="nonzero"/></clipPath><clipPath id="0c72a52cbd"><path d="M 13.332031 11.988281 L 363.953125 11.988281 L 363.953125 362.609375 L 13.332031 362.609375 Z M 13.332031 11.988281 " clip-rule="nonzero"/></clipPath></defs><rect x="-37.5" width="450" fill="#ffffff" y="-37.499999" height="449.999989" fill-opacity="1"/><rect x="-37.5" width="450" fill="#ffffff" y="-37.499999" height="449.999989" fill-opacity="1"/><path fill="#04d6ff" d="M 159.433594 63.261719 C 159.375 63.261719 159.332031 63.289062 159.304688 63.335938 L 155 70.855469 C 154.96875 70.90625 154.96875 70.953125 155 71.003906 L 159.304688 78.523438 C 159.332031 78.570312 159.375 78.597656 159.433594 78.597656 L 168.046875 78.597656 C 168.105469 78.597656 168.148438 78.570312 168.175781 78.523438 L 172.484375 71.003906 C 172.511719 70.953125 172.511719 70.90625 172.484375 70.855469 L 168.175781 63.335938 C 168.148438 63.289062 168.105469 63.261719 168.046875 63.261719 Z M 159.519531 63.5625 L 167.960938 63.5625 L 172.183594 70.929688 L 167.960938 78.296875 L 159.519531 78.296875 L 155.296875 70.929688 Z M 159.519531 63.5625 " fill-opacity="1" fill-rule="nonzero"/><path fill="#04d6ff" d="M 168.773438 63.414062 C 168.773438 63.613281 168.703125 63.785156 168.5625 63.929688 C 168.417969 64.074219 168.25 64.144531 168.046875 64.144531 C 167.847656 64.144531 167.675781 64.074219 167.535156 63.929688 C 167.390625 63.785156 167.320312 63.613281 167.320312 63.414062 C 167.320312 63.210938 167.390625 63.039062 167.535156 62.894531 C 167.675781 62.75 167.847656 62.679688 168.046875 62.679688 C 168.25 62.679688 168.417969 62.75 168.5625 62.894531 C 168.703125 63.039062 168.773438 63.210938 168.773438 63.414062 Z M 168.773438 63.414062 " fill-opacity="1" fill-rule="nonzero"/><g clip-path="url(#a07b325e68)"><path fill="#04d6ff" d="M 160.160156 78.449219 C 160.160156 78.648438 160.089844 78.824219 159.949219 78.964844 C 159.804688 79.109375 159.632812 79.179688 159.433594 79.179688 C 159.234375 79.179688 159.0625 79.109375 158.917969 78.964844 C 158.777344 78.824219 158.707031 78.648438 158.707031 78.449219 C 158.707031 78.246094 158.777344 78.074219 158.917969 77.929688 C 159.0625 77.785156 159.234375 77.714844 159.433594 77.714844 C 159.632812 77.714844 159.804688 77.785156 159.949219 77.929688 C 160.089844 78.074219 160.160156 78.246094 160.160156 78.449219 Z M 160.160156 78.449219 " fill-opacity="1" fill-rule="nonzero"/></g><path fill="#04d6ff" d="M 159.433594 46.25 C 159.375 46.25 159.332031 46.273438 159.304688 46.324219 L 155 53.839844 C 154.96875 53.890625 154.96875 53.941406 155 53.992188 L 159.304688 61.507812 C 159.332031 61.558594 159.375 61.582031 159.433594 61.582031 L 168.046875 61.582031 C 168.105469 61.582031 168.148438 61.558594 168.175781 61.507812 L 172.484375 53.992188 C 172.511719 53.941406 172.511719 53.890625 172.484375 53.839844 L 168.175781 46.324219 C 168.148438 46.273438 168.105469 46.25 168.046875 46.25 Z M 159.519531 46.546875 L 167.960938 46.546875 L 172.183594 53.914062 L 167.960938 61.285156 L 159.519531 61.285156 L 155.296875 53.914062 Z M 159.519531 46.546875 " fill-opacity="1" fill-rule="nonzero"/><path fill="#04d6ff" d="M 172.953125 53.914062 C 172.953125 54.117188 172.878906 54.289062 172.738281 54.433594 C 172.597656 54.578125 172.425781 54.648438 172.226562 54.648438 C 172.023438 54.648438 171.851562 54.578125 171.710938 54.433594 C 171.570312 54.289062 171.5 54.117188 171.5 53.914062 C 171.5 53.714844 171.570312 53.539062 171.710938 53.398438 C 171.851562 53.253906 172.023438 53.183594 172.226562 53.183594 C 172.425781 53.183594 172.597656 53.253906 172.738281 53.398438 C 172.878906 53.539062 172.953125 53.714844 172.953125 53.914062 Z M 172.953125 53.914062 " fill-opacity="1" fill-rule="nonzero"/><path fill="#04d6ff" d="M 160.160156 61.433594 C 160.160156 61.636719 160.089844 61.808594 159.949219 61.953125 C 159.804688 62.09375 159.632812 62.164062 159.433594 62.164062 C 159.234375 62.164062 159.0625 62.09375 158.917969 61.953125 C 158.777344 61.808594 158.707031 61.636719 158.707031 61.433594 C 158.707031 61.230469 158.777344 61.058594 158.917969 60.914062 C 159.0625 60.773438 159.234375 60.699219 159.433594 60.699219 C 159.632812 60.699219 159.804688 60.773438 159.949219 60.914062 C 160.089844 61.058594 160.160156 61.230469 160.160156 61.433594 Z M 160.160156 61.433594 " fill-opacity="1" fill-rule="nonzero"/><g clip-path="url(#29e5391dbc)"><path fill="#04d6ff" d="M 174.167969 54.839844 C 174.109375 54.839844 174.066406 54.863281 174.039062 54.914062 L 169.734375 62.429688 C 169.703125 62.480469 169.703125 62.53125 169.734375 62.582031 L 174.039062 70.097656 C 174.066406 70.148438 174.109375 70.171875 174.167969 70.171875 L 182.78125 70.171875 C 182.839844 70.171875 182.882812 70.148438 182.910156 70.097656 L 187.21875 62.582031 C 187.246094 62.53125 187.246094 62.480469 187.21875 62.429688 L 182.910156 54.914062 C 182.882812 54.863281 182.839844 54.839844 182.78125 54.839844 Z M 174.253906 55.136719 L 182.695312 55.136719 L 186.917969 62.507812 L 182.695312 69.875 L 174.253906 69.875 L 170.03125 62.507812 Z M 174.253906 55.136719 " fill-opacity="1" fill-rule="nonzero"/></g><path fill="#04d6ff" d="M 183.507812 54.988281 C 183.507812 55.191406 183.4375 55.363281 183.296875 55.507812 C 183.152344 55.648438 182.984375 55.722656 182.78125 55.722656 C 182.582031 55.722656 182.410156 55.648438 182.269531 55.507812 C 182.125 55.363281 182.054688 55.191406 182.054688 54.988281 C 182.054688 54.785156 182.125 54.613281 182.269531 54.46875 C 182.410156 54.328125 182.582031 54.257812 182.78125 54.257812 C 182.984375 54.257812 183.152344 54.328125 183.296875 54.46875 C 183.4375 54.613281 183.507812 54.785156 183.507812 54.988281 Z M 183.507812 54.988281 " fill-opacity="1" fill-rule="nonzero"/><path fill="#04d6ff" d="M 183.507812 70.023438 C 183.507812 70.226562 183.4375 70.398438 183.296875 70.542969 C 183.152344 70.683594 182.984375 70.757812 182.78125 70.757812 C 182.582031 70.757812 182.410156 70.683594 182.269531 70.542969 C 182.125 70.398438 182.054688 70.226562 182.054688 70.023438 C 182.054688 69.820312 182.125 69.648438 182.269531 69.503906 C 182.410156 69.363281 182.582031 69.292969 182.78125 69.292969 C 182.984375 69.292969 183.152344 69.363281 183.296875 69.503906 C 183.4375 69.648438 183.507812 69.820312 183.507812 70.023438 Z M 183.507812 70.023438 " fill-opacity="1" fill-rule="nonzero"/><path fill="#04d6ff" d="M 170.683594 66.125 C 170.652344 66.125 170.632812 66.136719 170.617188 66.164062 L 168.425781 69.984375 C 168.414062 70.011719 168.414062 70.035156 168.425781 70.0625 L 170.617188 73.882812 C 170.632812 73.910156 170.652344 73.921875 170.683594 73.921875 L 175.0625 73.921875 C 175.089844 73.921875 175.113281 73.910156 175.128906 73.882812 L 177.316406 70.0625 C 177.332031 70.035156 177.332031 70.011719 177.316406 69.984375 L 175.128906 66.164062 C 175.113281 66.136719 175.089844 66.125 175.0625 66.125 Z M 170.726562 66.277344 L 175.019531 66.277344 L 177.164062 70.023438 L 175.019531 73.769531 L 170.726562 73.769531 L 168.578125 70.023438 Z M 170.726562 66.277344 " fill-opacity="1" fill-rule="nonzero"/><path fill="#04d6ff" d="M 173.761719 45.824219 C 173.734375 45.824219 173.710938 45.839844 173.695312 45.863281 L 171.507812 49.6875 C 171.492188 49.710938 171.492188 49.738281 171.507812 49.761719 L 173.695312 53.585938 C 173.710938 53.609375 173.734375 53.621094 173.761719 53.621094 L 178.140625 53.621094 C 178.171875 53.621094 178.191406 53.609375 178.207031 53.585938 L 180.398438 49.761719 C 180.410156 49.738281 180.410156 49.710938 180.398438 49.6875 L 178.207031 45.863281 C 178.191406 45.839844 178.171875 45.824219 178.140625 45.824219 Z M 173.804688 45.976562 L 178.097656 45.976562 L 180.246094 49.722656 L 178.097656 53.46875 L 173.804688 53.46875 L 171.660156 49.722656 Z M 173.804688 45.976562 " fill-opacity="1" fill-rule="nonzero"/><g clip-path="url(#72d74e5c69)"><path fill="#04d6ff" d="M 151.257812 58.605469 C 151.230469 58.605469 151.207031 58.621094 151.191406 58.644531 L 149.003906 62.46875 C 148.988281 62.492188 148.988281 62.519531 149.003906 62.542969 L 151.191406 66.367188 C 151.207031 66.390625 151.230469 66.402344 151.257812 66.402344 L 155.636719 66.402344 C 155.667969 66.402344 155.6875 66.390625 155.703125 66.367188 L 157.894531 62.542969 C 157.90625 62.519531 157.90625 62.492188 157.894531 62.46875 L 155.703125 58.644531 C 155.6875 58.621094 155.667969 58.605469 155.636719 58.605469 Z M 151.300781 58.757812 L 155.59375 58.757812 L 157.742188 62.503906 L 155.59375 66.253906 L 151.300781 66.253906 L 149.15625 62.503906 Z M 151.300781 58.757812 " fill-opacity="1" fill-rule="nonzero"/></g><path fill="#04d6ff" d="M 150.253906 56.902344 C 150.242188 56.902344 150.234375 56.910156 150.226562 56.921875 L 149.226562 58.664062 C 149.21875 58.675781 149.21875 58.6875 149.226562 58.699219 L 150.226562 60.445312 C 150.234375 60.457031 150.242188 60.460938 150.253906 60.460938 L 152.253906 60.460938 C 152.269531 60.460938 152.277344 60.457031 152.285156 60.445312 L 153.285156 58.699219 C 153.289062 58.6875 153.289062 58.675781 153.285156 58.664062 L 152.285156 56.921875 C 152.277344 56.910156 152.269531 56.902344 152.253906 56.902344 Z M 150.277344 56.972656 L 152.234375 56.972656 L 153.214844 58.683594 L 152.234375 60.390625 L 150.277344 60.390625 L 149.296875 58.683594 Z M 150.277344 56.972656 " fill-opacity="1" fill-rule="nonzero"/><g clip-path="url(#ab2701f2f2)"><path fill="#04d6ff" d="M 157.167969 42.5 C 157.140625 42.5 157.117188 42.511719 157.105469 42.539062 L 154.914062 46.359375 C 154.898438 46.386719 154.898438 46.410156 154.914062 46.4375 L 157.105469 50.257812 C 157.117188 50.285156 157.140625 50.296875 157.167969 50.296875 L 161.550781 50.296875 C 161.578125 50.296875 161.601562 50.285156 161.613281 50.257812 L 163.804688 46.4375 C 163.820312 46.410156 163.820312 46.386719 163.804688 46.359375 L 161.613281 42.539062 C 161.601562 42.511719 161.578125 42.5 161.550781 42.5 Z M 157.214844 42.652344 L 161.503906 42.652344 L 163.652344 46.398438 L 161.507812 50.144531 L 157.214844 50.144531 L 155.066406 46.398438 Z M 157.214844 42.652344 " fill-opacity="1" fill-rule="nonzero"/></g><path fill="#04d6ff" d="M 165.382812 71.699219 C 165.367188 71.699219 165.359375 71.707031 165.351562 71.71875 L 164.351562 73.460938 C 164.347656 73.472656 164.347656 73.484375 164.351562 73.496094 L 165.351562 75.242188 C 165.359375 75.253906 165.367188 75.257812 165.382812 75.257812 L 167.378906 75.257812 C 167.394531 75.257812 167.402344 75.253906 167.410156 75.242188 L 168.410156 73.496094 C 168.417969 73.484375 168.417969 73.472656 168.410156 73.460938 L 167.410156 71.71875 C 167.402344 71.707031 167.394531 71.699219 167.378906 71.699219 Z M 165.402344 71.769531 L 167.359375 71.769531 L 168.339844 73.480469 L 167.359375 75.191406 L 165.402344 75.191406 L 164.421875 73.480469 Z M 165.402344 71.769531 " fill-opacity="1" fill-rule="nonzero"/><path fill="#04d6ff" d="M 179.503906 64.988281 C 179.492188 64.988281 179.480469 64.996094 179.472656 65.007812 L 178.476562 66.75 C 178.46875 66.761719 178.46875 66.773438 178.476562 66.785156 L 179.472656 68.53125 C 179.480469 68.542969 179.492188 68.546875 179.503906 68.546875 L 181.503906 68.546875 C 181.515625 68.546875 181.527344 68.542969 181.53125 68.53125 L 182.53125 66.785156 C 182.539062 66.773438 182.539062 66.761719 182.53125 66.75 L 181.53125 65.007812 C 181.527344 64.996094 181.515625 64.988281 181.503906 64.988281 Z M 179.523438 65.058594 L 181.484375 65.058594 L 182.460938 66.769531 L 181.484375 68.476562 L 179.523438 68.476562 L 178.542969 66.769531 Z M 179.523438 65.058594 " fill-opacity="1" fill-rule="nonzero"/><g clip-path="url(#0c72a52cbd)"><path fill="#21a89f" d="M 49.605469 11.988281 L 327.683594 11.988281 C 347.632812 11.988281 363.953125 28.308594 363.953125 48.257812 L 363.953125 326.335938 C 363.953125 346.285156 347.632812 362.609375 327.683594 362.609375 L 49.605469 362.609375 C 42.242188 362.609375 35.371094 360.382812 29.636719 356.574219 L 222.480469 229.578125 L 267.425781 275.414062 L 292.203125 86.972656 L 101.480469 106.195312 L 146.488281 152.09375 L 14.085938 333.671875 C 13.59375 331.300781 13.332031 328.851562 13.332031 326.335938 L 13.332031 48.257812 C 13.332031 28.308594 29.65625 11.988281 49.605469 11.988281 " fill-opacity="1" fill-rule="evenodd"/></g></svg>