<svg xmlns="http://www.w3.org/2000/svg" xmlns:xlink="http://www.w3.org/1999/xlink" width="500" zoomAndPan="magnify" viewBox="0 0 375 374.999991" height="500" preserveAspectRatio="xMidYMid meet" version="1.0"><defs><g/><clipPath id="4f3d00e489"><path d="M 5.59375 2.214844 L 369.40625 2.214844 L 369.40625 373 L 5.59375 373 Z M 5.59375 2.214844 " clip-rule="nonzero"/></clipPath><clipPath id="6a686a4560"><path d="M 187.5 2.214844 C 87.035156 2.214844 5.59375 85.171875 5.59375 187.5 C 5.59375 289.828125 87.035156 372.785156 187.5 372.785156 C 287.964844 372.785156 369.40625 289.828125 369.40625 187.5 C 369.40625 85.171875 287.964844 2.214844 187.5 2.214844 Z M 187.5 2.214844 " clip-rule="nonzero"/></clipPath><clipPath id="0fb6ae02aa"><path d="M 41 229 L 341 229 L 341 277 L 41 277 Z M 41 229 " clip-rule="nonzero"/></clipPath><clipPath id="7ac5d77a1d"><path d="M 41.054688 243.9375 L 340.058594 229.746094 L 341.589844 262.042969 L 42.585938 276.234375 Z M 41.054688 243.9375 " clip-rule="nonzero"/></clipPath><clipPath id="1c78a95f96"><path d="M 41.054688 243.9375 L 45.289062 276.105469 L 340.121094 231.496094 L 339.867188 229.753906 Z M 41.054688 243.9375 " clip-rule="nonzero"/></clipPath><clipPath id="3710837400"><path d="M 41.054688 243.9375 L 340.058594 229.746094 L 341.589844 262.042969 L 42.585938 276.234375 Z M 41.054688 243.9375 " clip-rule="nonzero"/></clipPath><clipPath id="d81eff3ace"><path d="M 41.054688 243.9375 L 340.039062 229.746094 L 341.570312 262.042969 L 42.585938 276.230469 Z M 41.054688 243.9375 " clip-rule="nonzero"/></clipPath><linearGradient x1="-12.065304" gradientTransform="matrix(0.126162, -0.00598725, 0.00598725, 0.126162, 41.053559, 243.936413)" y1="127.991997" x2="2370.503674" gradientUnits="userSpaceOnUse" y2="127.991997" id="10d9ce5fff"><stop stop-opacity="1" stop-color="rgb(65.098572%, 65.098572%, 65.098572%)" offset="0"/><stop stop-opacity="1" stop-color="rgb(65.283203%, 65.283203%, 65.283203%)" offset="0.015625"/><stop stop-opacity="1" stop-color="rgb(65.606689%, 65.606689%, 65.606689%)" offset="0.0234375"/><stop stop-opacity="1" stop-color="rgb(65.881348%, 65.881348%, 65.881348%)" offset="0.03125"/><stop stop-opacity="1" stop-color="rgb(66.15448%, 66.15448%, 66.15448%)" offset="0.0390625"/><stop stop-opacity="1" stop-color="rgb(66.429138%, 66.429138%, 66.429138%)" offset="0.046875"/><stop stop-opacity="1" stop-color="rgb(66.703796%, 66.703796%, 66.703796%)" offset="0.0546875"/><stop stop-opacity="1" stop-color="rgb(66.976929%, 66.976929%, 66.976929%)" offset="0.0625"/><stop stop-opacity="1" stop-color="rgb(67.251587%, 67.251587%, 67.251587%)" offset="0.0703125"/><stop stop-opacity="1" stop-color="rgb(67.524719%, 67.524719%, 67.524719%)" offset="0.078125"/><stop stop-opacity="1" stop-color="rgb(67.799377%, 67.799377%, 67.799377%)" offset="0.0859375"/><stop stop-opacity="1" stop-color="rgb(68.074036%, 68.074036%, 68.074036%)" offset="0.09375"/><stop stop-opacity="1" stop-color="rgb(68.347168%, 68.347168%, 68.347168%)" offset="0.101563"/><stop stop-opacity="1" stop-color="rgb(68.621826%, 68.621826%, 68.621826%)" offset="0.109375"/><stop stop-opacity="1" stop-color="rgb(68.896484%, 68.896484%, 68.896484%)" offset="0.117188"/><stop stop-opacity="1" stop-color="rgb(69.169617%, 69.169617%, 69.169617%)" offset="0.125"/><stop stop-opacity="1" stop-color="rgb(69.444275%, 69.444275%, 69.444275%)" offset="0.132813"/><stop stop-opacity="1" stop-color="rgb(69.718933%, 69.718933%, 69.718933%)" offset="0.140625"/><stop stop-opacity="1" stop-color="rgb(69.992065%, 69.992065%, 69.992065%)" offset="0.148438"/><stop stop-opacity="1" stop-color="rgb(70.266724%, 70.266724%, 70.266724%)" offset="0.15625"/><stop stop-opacity="1" stop-color="rgb(70.541382%, 70.541382%, 70.541382%)" offset="0.164063"/><stop stop-opacity="1" stop-color="rgb(70.814514%, 70.814514%, 70.814514%)" offset="0.171875"/><stop stop-opacity="1" stop-color="rgb(71.089172%, 71.089172%, 71.089172%)" offset="0.179688"/><stop stop-opacity="1" stop-color="rgb(71.363831%, 71.363831%, 71.363831%)" offset="0.1875"/><stop stop-opacity="1" stop-color="rgb(71.636963%, 71.636963%, 71.636963%)" offset="0.195313"/><stop stop-opacity="1" stop-color="rgb(71.911621%, 71.911621%, 71.911621%)" offset="0.203125"/><stop stop-opacity="1" stop-color="rgb(72.184753%, 72.184753%, 72.184753%)" offset="0.210938"/><stop stop-opacity="1" stop-color="rgb(72.459412%, 72.459412%, 72.459412%)" offset="0.21875"/><stop stop-opacity="1" stop-color="rgb(72.73407%, 72.73407%, 72.73407%)" offset="0.226562"/><stop stop-opacity="1" stop-color="rgb(73.007202%, 73.007202%, 73.007202%)" offset="0.234375"/><stop stop-opacity="1" stop-color="rgb(73.28186%, 73.28186%, 73.28186%)" offset="0.242188"/><stop stop-opacity="1" stop-color="rgb(73.556519%, 73.556519%, 73.556519%)" offset="0.25"/><stop stop-opacity="1" stop-color="rgb(73.829651%, 73.829651%, 73.829651%)" offset="0.257812"/><stop stop-opacity="1" stop-color="rgb(74.104309%, 74.104309%, 74.104309%)" offset="0.265625"/><stop stop-opacity="1" stop-color="rgb(74.378967%, 74.378967%, 74.378967%)" offset="0.273438"/><stop stop-opacity="1" stop-color="rgb(74.6521%, 74.6521%, 74.6521%)" offset="0.28125"/><stop stop-opacity="1" stop-color="rgb(74.926758%, 74.926758%, 74.926758%)" offset="0.289062"/><stop stop-opacity="1" stop-color="rgb(75.201416%, 75.201416%, 75.201416%)" offset="0.296875"/><stop stop-opacity="1" stop-color="rgb(75.474548%, 75.474548%, 75.474548%)" offset="0.304688"/><stop stop-opacity="1" stop-color="rgb(75.749207%, 75.749207%, 75.749207%)" offset="0.3125"/><stop stop-opacity="1" stop-color="rgb(76.023865%, 76.023865%, 76.023865%)" offset="0.320313"/><stop stop-opacity="1" stop-color="rgb(76.296997%, 76.296997%, 76.296997%)" offset="0.328125"/><stop stop-opacity="1" stop-color="rgb(76.571655%, 76.571655%, 76.571655%)" offset="0.335938"/><stop stop-opacity="1" stop-color="rgb(76.844788%, 76.844788%, 76.844788%)" offset="0.34375"/><stop stop-opacity="1" stop-color="rgb(77.119446%, 77.119446%, 77.119446%)" offset="0.351563"/><stop stop-opacity="1" stop-color="rgb(77.394104%, 77.394104%, 77.394104%)" offset="0.359375"/><stop stop-opacity="1" stop-color="rgb(77.667236%, 77.667236%, 77.667236%)" offset="0.367188"/><stop stop-opacity="1" stop-color="rgb(77.941895%, 77.941895%, 77.941895%)" offset="0.375"/><stop stop-opacity="1" stop-color="rgb(78.216553%, 78.216553%, 78.216553%)" offset="0.382813"/><stop stop-opacity="1" stop-color="rgb(78.489685%, 78.489685%, 78.489685%)" offset="0.390625"/><stop stop-opacity="1" stop-color="rgb(78.764343%, 78.764343%, 78.764343%)" offset="0.398438"/><stop stop-opacity="1" stop-color="rgb(79.039001%, 79.039001%, 79.039001%)" offset="0.40625"/><stop stop-opacity="1" stop-color="rgb(79.312134%, 79.312134%, 79.312134%)" offset="0.414063"/><stop stop-opacity="1" stop-color="rgb(79.586792%, 79.586792%, 79.586792%)" offset="0.421875"/><stop stop-opacity="1" stop-color="rgb(79.86145%, 79.86145%, 79.86145%)" offset="0.429688"/><stop stop-opacity="1" stop-color="rgb(80.134583%, 80.134583%, 80.134583%)" offset="0.4375"/><stop stop-opacity="1" stop-color="rgb(80.409241%, 80.409241%, 80.409241%)" offset="0.445313"/><stop stop-opacity="1" stop-color="rgb(80.683899%, 80.683899%, 80.683899%)" offset="0.453125"/><stop stop-opacity="1" stop-color="rgb(80.957031%, 80.957031%, 80.957031%)" offset="0.460938"/><stop stop-opacity="1" stop-color="rgb(81.231689%, 81.231689%, 81.231689%)" offset="0.46875"/><stop stop-opacity="1" stop-color="rgb(81.504822%, 81.504822%, 81.504822%)" offset="0.476563"/><stop stop-opacity="1" stop-color="rgb(81.77948%, 81.77948%, 81.77948%)" offset="0.484375"/><stop stop-opacity="1" stop-color="rgb(82.054138%, 82.054138%, 82.054138%)" offset="0.492188"/><stop stop-opacity="1" stop-color="rgb(82.327271%, 82.327271%, 82.327271%)" offset="0.5"/><stop stop-opacity="1" stop-color="rgb(82.601929%, 82.601929%, 82.601929%)" offset="0.507813"/><stop stop-opacity="1" stop-color="rgb(82.876587%, 82.876587%, 82.876587%)" offset="0.515625"/><stop stop-opacity="1" stop-color="rgb(83.149719%, 83.149719%, 83.149719%)" offset="0.523438"/><stop stop-opacity="1" stop-color="rgb(83.424377%, 83.424377%, 83.424377%)" offset="0.53125"/><stop stop-opacity="1" stop-color="rgb(83.699036%, 83.699036%, 83.699036%)" offset="0.539062"/><stop stop-opacity="1" stop-color="rgb(83.972168%, 83.972168%, 83.972168%)" offset="0.546875"/><stop stop-opacity="1" stop-color="rgb(84.246826%, 84.246826%, 84.246826%)" offset="0.554688"/><stop stop-opacity="1" stop-color="rgb(84.521484%, 84.521484%, 84.521484%)" offset="0.5625"/><stop stop-opacity="1" stop-color="rgb(84.794617%, 84.794617%, 84.794617%)" offset="0.570312"/><stop stop-opacity="1" stop-color="rgb(85.069275%, 85.069275%, 85.069275%)" offset="0.578125"/><stop stop-opacity="1" stop-color="rgb(85.343933%, 85.343933%, 85.343933%)" offset="0.585938"/><stop stop-opacity="1" stop-color="rgb(85.617065%, 85.617065%, 85.617065%)" offset="0.59375"/><stop stop-opacity="1" stop-color="rgb(85.891724%, 85.891724%, 85.891724%)" offset="0.601562"/><stop stop-opacity="1" stop-color="rgb(86.164856%, 86.164856%, 86.164856%)" offset="0.609375"/><stop stop-opacity="1" stop-color="rgb(86.439514%, 86.439514%, 86.439514%)" offset="0.617188"/><stop stop-opacity="1" stop-color="rgb(86.714172%, 86.714172%, 86.714172%)" offset="0.625"/><stop stop-opacity="1" stop-color="rgb(86.987305%, 86.987305%, 86.987305%)" offset="0.632813"/><stop stop-opacity="1" stop-color="rgb(87.261963%, 87.261963%, 87.261963%)" offset="0.640625"/><stop stop-opacity="1" stop-color="rgb(87.536621%, 87.536621%, 87.536621%)" offset="0.648438"/><stop stop-opacity="1" stop-color="rgb(87.809753%, 87.809753%, 87.809753%)" offset="0.65625"/><stop stop-opacity="1" stop-color="rgb(88.084412%, 88.084412%, 88.084412%)" offset="0.664062"/><stop stop-opacity="1" stop-color="rgb(88.35907%, 88.35907%, 88.35907%)" offset="0.671875"/><stop stop-opacity="1" stop-color="rgb(88.632202%, 88.632202%, 88.632202%)" offset="0.679688"/><stop stop-opacity="1" stop-color="rgb(88.90686%, 88.90686%, 88.90686%)" offset="0.6875"/><stop stop-opacity="1" stop-color="rgb(89.181519%, 89.181519%, 89.181519%)" offset="0.695312"/><stop stop-opacity="1" stop-color="rgb(89.454651%, 89.454651%, 89.454651%)" offset="0.703125"/><stop stop-opacity="1" stop-color="rgb(89.729309%, 89.729309%, 89.729309%)" offset="0.710938"/><stop stop-opacity="1" stop-color="rgb(90.003967%, 90.003967%, 90.003967%)" offset="0.71875"/><stop stop-opacity="1" stop-color="rgb(90.2771%, 90.2771%, 90.2771%)" offset="0.726563"/><stop stop-opacity="1" stop-color="rgb(90.551758%, 90.551758%, 90.551758%)" offset="0.734375"/><stop stop-opacity="1" stop-color="rgb(90.826416%, 90.826416%, 90.826416%)" offset="0.742188"/><stop stop-opacity="1" stop-color="rgb(91.099548%, 91.099548%, 91.099548%)" offset="0.75"/><stop stop-opacity="1" stop-color="rgb(91.374207%, 91.374207%, 91.374207%)" offset="0.757813"/><stop stop-opacity="1" stop-color="rgb(91.647339%, 91.647339%, 91.647339%)" offset="0.765625"/><stop stop-opacity="1" stop-color="rgb(91.921997%, 91.921997%, 91.921997%)" offset="0.773438"/><stop stop-opacity="1" stop-color="rgb(92.196655%, 92.196655%, 92.196655%)" offset="0.78125"/><stop stop-opacity="1" stop-color="rgb(92.469788%, 92.469788%, 92.469788%)" offset="0.789063"/><stop stop-opacity="1" stop-color="rgb(92.744446%, 92.744446%, 92.744446%)" offset="0.796875"/><stop stop-opacity="1" stop-color="rgb(93.019104%, 93.019104%, 93.019104%)" offset="0.804688"/><stop stop-opacity="1" stop-color="rgb(93.292236%, 93.292236%, 93.292236%)" offset="0.8125"/><stop stop-opacity="1" stop-color="rgb(93.566895%, 93.566895%, 93.566895%)" offset="0.820312"/><stop stop-opacity="1" stop-color="rgb(93.841553%, 93.841553%, 93.841553%)" offset="0.828125"/><stop stop-opacity="1" stop-color="rgb(94.114685%, 94.114685%, 94.114685%)" offset="0.835938"/><stop stop-opacity="1" stop-color="rgb(94.389343%, 94.389343%, 94.389343%)" offset="0.84375"/><stop stop-opacity="1" stop-color="rgb(94.664001%, 94.664001%, 94.664001%)" offset="0.851563"/><stop stop-opacity="1" stop-color="rgb(94.937134%, 94.937134%, 94.937134%)" offset="0.859375"/><stop stop-opacity="1" stop-color="rgb(95.211792%, 95.211792%, 95.211792%)" offset="0.867188"/><stop stop-opacity="1" stop-color="rgb(95.48645%, 95.48645%, 95.48645%)" offset="0.875"/><stop stop-opacity="1" stop-color="rgb(95.759583%, 95.759583%, 95.759583%)" offset="0.882813"/><stop stop-opacity="1" stop-color="rgb(96.034241%, 96.034241%, 96.034241%)" offset="0.890625"/><stop stop-opacity="1" stop-color="rgb(96.307373%, 96.307373%, 96.307373%)" offset="0.898438"/><stop stop-opacity="1" stop-color="rgb(96.582031%, 96.582031%, 96.582031%)" offset="0.90625"/><stop stop-opacity="1" stop-color="rgb(96.856689%, 96.856689%, 96.856689%)" offset="0.914063"/><stop stop-opacity="1" stop-color="rgb(97.129822%, 97.129822%, 97.129822%)" offset="0.921875"/><stop stop-opacity="1" stop-color="rgb(97.40448%, 97.40448%, 97.40448%)" offset="0.929688"/><stop stop-opacity="1" stop-color="rgb(97.679138%, 97.679138%, 97.679138%)" offset="0.9375"/><stop stop-opacity="1" stop-color="rgb(97.952271%, 97.952271%, 97.952271%)" offset="0.945313"/><stop stop-opacity="1" stop-color="rgb(98.226929%, 98.226929%, 98.226929%)" offset="0.953125"/><stop stop-opacity="1" stop-color="rgb(98.501587%, 98.501587%, 98.501587%)" offset="0.960938"/><stop stop-opacity="1" stop-color="rgb(98.774719%, 98.774719%, 98.774719%)" offset="0.96875"/><stop stop-opacity="1" stop-color="rgb(99.049377%, 99.049377%, 99.049377%)" offset="0.976563"/><stop stop-opacity="1" stop-color="rgb(99.324036%, 99.324036%, 99.324036%)" offset="0.984375"/><stop stop-opacity="1" stop-color="rgb(99.597168%, 99.597168%, 99.597168%)" offset="0.992188"/><stop stop-opacity="1" stop-color="rgb(99.867249%, 99.867249%, 99.867249%)" offset="1"/></linearGradient></defs><g clip-path="url(#4f3d00e489)"><g clip-path="url(#6a686a4560)"><path fill="#000000" d="M 5.59375 2.214844 L 369.40625 2.214844 L 369.40625 373.132812 L 5.59375 373.132812 Z M 5.59375 2.214844 " fill-opacity="1" fill-rule="nonzero"/></g></g><g fill="#ffffff" fill-opacity="0.302"><g transform="translate(31.932863, 219.040855)"><g><path d="M 59.5 -90.90625 L 59.5 0 L 36.796875 0 L 36.796875 -90.90625 L 1.765625 -90.90625 L 1.765625 -108.453125 L 94.59375 -108.453125 L 94.59375 -90.90625 Z M 59.5 -90.90625 "/></g></g></g><g fill="#ffffff" fill-opacity="0.302"><g transform="translate(124.127324, 219.040855)"><g><path d="M 107.21875 -55.03125 C 107.21875 -43.84375 105.023438 -34.078125 100.640625 -25.734375 C 96.253906 -17.398438 90.046875 -11.023438 82.015625 -6.609375 C 73.984375 -2.203125 64.785156 0 54.421875 0 L 10.546875 0 L 10.546875 -108.453125 L 49.796875 -108.453125 C 68.066406 -108.453125 82.203125 -103.847656 92.203125 -94.640625 C 102.210938 -85.429688 107.21875 -72.226562 107.21875 -55.03125 Z M 84.359375 -55.03125 C 84.359375 -66.6875 81.332031 -75.578125 75.28125 -81.703125 C 69.226562 -87.835938 60.582031 -90.90625 49.34375 -90.90625 L 33.25 -90.90625 L 33.25 -17.546875 L 52.5 -17.546875 C 62.25 -17.546875 69.992188 -20.90625 75.734375 -27.625 C 81.484375 -34.351562 84.359375 -43.488281 84.359375 -55.03125 Z M 84.359375 -55.03125 "/></g></g></g><g fill="#ffffff" fill-opacity="0.302"><g transform="translate(233.871626, 219.040855)"><g><path d="M 87.203125 0 L 77.59375 -27.703125 L 36.25 -27.703125 L 26.625 0 L 3.921875 0 L 43.484375 -108.453125 L 70.28125 -108.453125 L 109.6875 0 Z M 56.890625 -91.75 L 56.421875 -90.0625 C 55.910156 -88.207031 55.296875 -86.097656 54.578125 -83.734375 C 53.859375 -81.378906 49.441406 -68.398438 41.328125 -44.796875 L 72.515625 -44.796875 L 61.8125 -75.96875 L 58.5 -86.4375 Z M 56.890625 -91.75 "/></g></g></g><g fill="#ffffff" fill-opacity="0.502"><g transform="translate(29.338801, 221.459873)"><g><path d="M 59.5 -90.90625 L 59.5 0 L 36.796875 0 L 36.796875 -90.90625 L 1.765625 -90.90625 L 1.765625 -108.453125 L 94.59375 -108.453125 L 94.59375 -90.90625 Z M 59.5 -90.90625 "/></g></g></g><g fill="#ffffff" fill-opacity="0.502"><g transform="translate(121.533263, 221.459873)"><g><path d="M 107.21875 -55.03125 C 107.21875 -43.84375 105.023438 -34.078125 100.640625 -25.734375 C 96.253906 -17.398438 90.046875 -11.023438 82.015625 -6.609375 C 73.984375 -2.203125 64.785156 0 54.421875 0 L 10.546875 0 L 10.546875 -108.453125 L 49.796875 -108.453125 C 68.066406 -108.453125 82.203125 -103.847656 92.203125 -94.640625 C 102.210938 -85.429688 107.21875 -72.226562 107.21875 -55.03125 Z M 84.359375 -55.03125 C 84.359375 -66.6875 81.332031 -75.578125 75.28125 -81.703125 C 69.226562 -87.835938 60.582031 -90.90625 49.34375 -90.90625 L 33.25 -90.90625 L 33.25 -17.546875 L 52.5 -17.546875 C 62.25 -17.546875 69.992188 -20.90625 75.734375 -27.625 C 81.484375 -34.351562 84.359375 -43.488281 84.359375 -55.03125 Z M 84.359375 -55.03125 "/></g></g></g><g fill="#ffffff" fill-opacity="0.502"><g transform="translate(231.277565, 221.459873)"><g><path d="M 87.203125 0 L 77.59375 -27.703125 L 36.25 -27.703125 L 26.625 0 L 3.921875 0 L 43.484375 -108.453125 L 70.28125 -108.453125 L 109.6875 0 Z M 56.890625 -91.75 L 56.421875 -90.0625 C 55.910156 -88.207031 55.296875 -86.097656 54.578125 -83.734375 C 53.859375 -81.378906 49.441406 -68.398438 41.328125 -44.796875 L 72.515625 -44.796875 L 61.8125 -75.96875 L 58.5 -86.4375 Z M 56.890625 -91.75 "/></g></g></g><g fill="#ffffff" fill-opacity="1"><g transform="translate(26.744709, 223.87889)"><g><path d="M 59.5 -90.90625 L 59.5 0 L 36.796875 0 L 36.796875 -90.90625 L 1.765625 -90.90625 L 1.765625 -108.453125 L 94.59375 -108.453125 L 94.59375 -90.90625 Z M 59.5 -90.90625 "/></g></g></g><g fill="#ffffff" fill-opacity="1"><g transform="translate(118.93917, 223.87889)"><g><path d="M 107.21875 -55.03125 C 107.21875 -43.84375 105.023438 -34.078125 100.640625 -25.734375 C 96.253906 -17.398438 90.046875 -11.023438 82.015625 -6.609375 C 73.984375 -2.203125 64.785156 0 54.421875 0 L 10.546875 0 L 10.546875 -108.453125 L 49.796875 -108.453125 C 68.066406 -108.453125 82.203125 -103.847656 92.203125 -94.640625 C 102.210938 -85.429688 107.21875 -72.226562 107.21875 -55.03125 Z M 84.359375 -55.03125 C 84.359375 -66.6875 81.332031 -75.578125 75.28125 -81.703125 C 69.226562 -87.835938 60.582031 -90.90625 49.34375 -90.90625 L 33.25 -90.90625 L 33.25 -17.546875 L 52.5 -17.546875 C 62.25 -17.546875 69.992188 -20.90625 75.734375 -27.625 C 81.484375 -34.351562 84.359375 -43.488281 84.359375 -55.03125 Z M 84.359375 -55.03125 "/></g></g></g><g fill="#ffffff" fill-opacity="1"><g transform="translate(228.683472, 223.87889)"><g><path d="M 87.203125 0 L 77.59375 -27.703125 L 36.25 -27.703125 L 26.625 0 L 3.921875 0 L 43.484375 -108.453125 L 70.28125 -108.453125 L 109.6875 0 Z M 56.890625 -91.75 L 56.421875 -90.0625 C 55.910156 -88.207031 55.296875 -86.097656 54.578125 -83.734375 C 53.859375 -81.378906 49.441406 -68.398438 41.328125 -44.796875 L 72.515625 -44.796875 L 61.8125 -75.96875 L 58.5 -86.4375 Z M 56.890625 -91.75 "/></g></g></g><g clip-path="url(#0fb6ae02aa)"><g clip-path="url(#7ac5d77a1d)"><g clip-path="url(#1c78a95f96)"><g clip-path="url(#3710837400)"><g clip-path="url(#d81eff3ace)"><path fill="url(#10d9ce5fff)" d="M 38.859375 229.859375 L 41.726562 290.265625 L 342.316406 276 L 339.449219 215.59375 Z M 38.859375 229.859375 " fill-rule="nonzero"/></g></g></g></g></g></svg>